<?xml version="1.0" encoding="UTF-8" standalone="no"?>
<!-- Created with Inkscape (http://www.inkscape.org/) -->

<svg
   xmlns:dc="http://purl.org/dc/elements/1.1/"
   xmlns:cc="http://creativecommons.org/ns#"
   xmlns:rdf="http://www.w3.org/1999/02/22-rdf-syntax-ns#"
   xmlns:svg="http://www.w3.org/2000/svg"
   xmlns="http://www.w3.org/2000/svg"
   xmlns:sodipodi="http://sodipodi.sourceforge.net/DTD/sodipodi-0.dtd"
   xmlns:inkscape="http://www.inkscape.org/namespaces/inkscape"
   width="210mm"
   height="297mm"
   id="svg2"
   version="1.1"
   inkscape:version="0.48.3.1 r9886"
   sodipodi:docname="Neues Dokument 1">
  <defs
     id="defs4" />
  <sodipodi:namedview
     id="base"
     pagecolor="#ffffff"
     bordercolor="#666666"
     borderopacity="1.0"
     inkscape:pageopacity="0.0"
     inkscape:pageshadow="2"
     inkscape:zoom="0.60910589"
     inkscape:cx="372.04724"
     inkscape:cy="526.18109"
     inkscape:document-units="px"
     inkscape:current-layer="layer1"
     showgrid="false"
     inkscape:window-width="1233"
     inkscape:window-height="848"
     inkscape:window-x="22"
     inkscape:window-y="29"
     inkscape:window-maximized="0" />
  <metadata
     id="metadata7">
    <rdf:RDF>
      <cc:Work
         rdf:about="">
        <dc:format>image/svg+xml</dc:format>
        <dc:type
           rdf:resource="http://purl.org/dc/dcmitype/StillImage" />
        <dc:title></dc:title>
      </cc:Work>
    </rdf:RDF>
  </metadata>
  <g
     inkscape:label="Ebene 1"
     inkscape:groupmode="layer"
     id="layer1">
    <g
       transform="matrix(0.59079204,-0.36341998,0.75537923,1.2279788,-116.73953,250.85296)"
       style="font-size:97.7834549px;font-style:normal;font-weight:normal;line-height:125%;letter-spacing:0px;word-spacing:0px;fill:#000000;fill-opacity:1;stroke:none;font-family:Sans"
       id="text2985">
      <path
         d="m 231.84321,255.96538 0,-69.99539 9.26269,0 0,28.74299 36.38232,0 0,-28.74299 9.26269,0 0,69.99539 -9.26269,0 0,-32.99237 -36.38232,0 0,32.99237 z"
         id="path2990"
         inkscape:connector-curvature="0" />
      <path
         d="m 334.21026,249.71067 c -3.18309,2.7056 -6.24677,4.61544 -9.19107,5.7295 -2.94435,1.11407 -6.10353,1.67111 -9.47754,1.67111 -5.57037,0 -9.85157,-1.36076 -12.84363,-4.08227 -2.99208,-2.72151 -4.48811,-6.19899 -4.48811,-10.43246 0,-2.48277 0.56499,-4.7507 1.69498,-6.80378 1.12998,-2.05305 2.6101,-3.70028 4.44036,-4.9417 1.83024,-1.24136 3.89127,-2.18036 6.18308,-2.817 1.68701,-0.4456 4.23345,-0.87531 7.63934,-1.28914 6.93903,-0.82756 12.04783,-1.81431 15.32641,-2.96024 0.0318,-1.1777 0.0477,-1.92571 0.0477,-2.24405 -4e-5,-3.50133 -0.81171,-5.96819 -2.43503,-7.40061 -2.19635,-1.94162 -5.45897,-2.91245 -9.7879,-2.91249 -4.0425,4e-5 -7.02661,0.70827 -8.95234,2.12469 -1.92577,1.4165 -3.35018,3.92315 -4.27325,7.51996 l -8.40327,-1.1459 c 0.76393,-3.59681 2.02123,-6.50134 3.77192,-8.71361 1.75067,-2.21218 4.2812,-3.91511 7.59159,-5.1088 3.31036,-1.1936 7.14593,-1.79042 11.50674,-1.79047 4.32893,5e-5 7.8462,0.50934 10.55183,1.52787 2.70556,1.01862 4.69496,2.2998 5.96823,3.84353 1.27318,1.54383 2.16443,3.49345 2.67377,5.84887 0.28642,1.46424 0.42966,4.10618 0.42971,7.92581 l 0,11.45899 c -5e-5,7.98949 0.18298,13.04258 0.54908,15.1593 0.366,2.11674 1.09014,4.14594 2.17243,6.0876 l -8.97622,0 c -0.89129,-1.78251 -1.46424,-3.86741 -1.71885,-6.25471 z m -0.71618,-19.19382 c -3.11943,1.27325 -7.79852,2.35549 -14.03728,3.24672 -3.53321,0.50931 -6.0319,1.08226 -7.49609,1.71885 -1.46422,0.63663 -2.59421,1.56767 -3.38995,2.79313 -0.79578,1.22549 -1.19366,2.58625 -1.19365,4.08227 -1e-5,2.29181 0.86737,4.20164 2.60215,5.7295 1.73475,1.52787 4.27323,2.2918 7.61546,2.2918 3.31035,0 6.25467,-0.72414 8.83298,-2.17244 2.57824,-1.44828 4.47215,-3.42973 5.68175,-5.94435 0.92305,-1.94165 1.38459,-4.8064 1.38463,-8.59425 z"
         id="path2992"
         inkscape:connector-curvature="0" />
      <path
         d="m 355.36167,255.96538 0,-69.99539 8.59425,0 0,69.99539 z"
         id="path2994"
         inkscape:connector-curvature="0" />
      <path
         d="m 377.13376,255.96538 0,-69.99539 8.59425,0 0,69.99539 z"
         id="path2996"
         inkscape:connector-curvature="0" />
      <path
         d="m 395.89787,230.61234 c 0,-9.38997 2.6101,-16.34494 7.83032,-20.86492 4.36077,-3.75596 9.67646,-5.63396 15.9471,-5.63401 6.97086,5e-5 12.66852,2.28389 17.09301,6.85153 4.4244,4.56772 6.63662,10.87812 6.63667,18.93122 -5e-5,6.52528 -0.97884,11.65795 -2.93637,15.39803 -1.95762,3.74009 -4.80646,6.64463 -8.5465,8.71361 -3.74013,2.06898 -7.82239,3.10348 -12.24681,3.10348 -7.09823,0 -12.83568,-2.27589 -17.21237,-6.82766 -4.37671,-4.55175 -6.56505,-11.10884 -6.56505,-19.67128 z m 8.83298,0 c -10e-6,6.49345 1.41644,11.35557 4.24938,14.58635 2.8329,3.23081 6.39791,4.84621 10.69506,4.84621 4.26526,0 7.81437,-1.62336 10.64732,-4.87008 2.83288,-3.2467 4.24934,-8.19635 4.24938,-14.84895 -4e-5,-6.27059 -1.42446,-11.02129 -4.27325,-14.25213 -2.84887,-3.23076 -6.39002,-4.84616 -10.62345,-4.8462 -4.29715,4e-5 -7.86216,1.60748 -10.69506,4.82233 -2.83294,3.21492 -4.24939,8.06907 -4.24938,14.56247 z"
         id="path2998"
         inkscape:connector-curvature="0" />
      <path
         d="m 483.32049,255.96538 0,-69.99539 9.26269,0 0,69.99539 z"
         id="path3000"
         inkscape:connector-curvature="0" />
      <path
         d="m 507.76635,255.96538 0,-50.70607 7.73482,0 0,7.20962 c 3.72416,-5.5703 9.10352,-8.35547 16.13809,-8.35552 3.0557,5e-5 5.86475,0.54913 8.42714,1.64723 2.56232,1.0982 4.48011,2.53853 5.75337,4.321 1.27318,1.78255 2.16444,3.89928 2.67377,6.35019 0.31826,1.59157 0.47741,4.37674 0.47746,8.35552 l 0,31.17803 -8.59425,0 0,-30.84381 c -4e-5,-3.50132 -0.33426,-6.11938 -1.00266,-7.85419 -0.66848,-1.73472 -1.85417,-3.11935 -3.55707,-4.15388 -1.70296,-1.03445 -3.70033,-1.5517 -5.9921,-1.55174 -3.66054,4e-5 -6.81971,1.16186 -9.47754,3.48544 -2.65787,2.32367 -3.9868,6.7322 -3.98678,13.2256 l 0,27.69258 z"
         id="path3002"
         inkscape:connector-curvature="0" />
      <path
         d="m 562.24433,255.96538 0,-69.99539 8.59425,0 0,39.91552 20.33972,-20.6262 11.12478,0 -19.3848,18.81185 21.34238,31.89422 -10.59957,0 -16.75879,-25.92599 -6.06372,5.82499 0,20.101 z"
         id="path3004"
         inkscape:connector-curvature="0" />
      <path
         d="m 609.03524,233.47709 8.73749,-0.76393 c 0.41378,3.50138 1.37665,6.37408 2.88862,8.61812 1.51193,2.24407 3.85943,4.05841 7.04251,5.44303 3.18303,1.38463 6.76396,2.07695 10.74281,2.07694 3.53315,1e-5 6.65254,-0.5252 9.35818,-1.57561 2.70555,-1.0504 4.71883,-2.49073 6.03985,-4.321 1.32092,-1.83024 1.9814,-3.82761 1.98145,-5.9921 -5e-5,-2.19629 -0.63666,-4.11408 -1.90983,-5.75337 -1.27327,-1.63925 -3.37409,-3.01592 -6.30245,-4.13002 -1.87804,-0.73207 -6.03193,-1.87001 -12.46166,-3.41382 -6.4298,-1.54375 -10.93382,-3 -13.51207,-4.36875 -3.34222,-1.75064 -5.83296,-3.92307 -7.47222,-6.5173 -1.63928,-2.59415 -2.45892,-5.49868 -2.45891,-8.71362 -1e-5,-3.53313 1.00265,-6.83555 3.00798,-9.90726 2.00532,-3.07158 4.93372,-5.40316 8.78524,-6.99476 3.85147,-1.59146 8.13267,-2.38722 12.84362,-2.38729 5.18835,7e-5 9.76398,0.83562 13.72693,2.50665 3.96285,1.67118 7.01063,4.13008 9.14332,7.37674 2.1326,3.24677 3.27849,6.92319 3.4377,11.02928 l -8.88072,0.66844 c -0.47751,-4.42439 -2.09291,-7.76659 -4.8462,-10.02662 -2.75339,-2.25991 -6.81973,-3.38989 -12.19906,-3.38995 -5.6022,6e-5 -9.68447,1.02659 -12.2468,3.0796 -2.56238,2.05313 -3.84356,4.52795 -3.84354,7.42448 -2e-5,2.51466 0.90715,4.58364 2.72151,6.20696 1.78249,1.6234 6.4377,3.28654 13.96565,4.98943 7.52789,1.70298 12.69239,3.19105 15.49352,4.46424 4.07426,1.87804 7.08225,4.25737 9.02397,7.138 1.9416,2.88069 2.91243,6.19902 2.91249,9.95501 -6e-5,3.72419 -1.06638,7.2335 -3.19897,10.52795 -2.1327,3.29447 -5.19639,5.85683 -9.19107,7.68708 -3.99478,1.83025 -8.49084,2.74538 -13.4882,2.74538 -6.33431,0 -11.64204,-0.92308 -15.92323,-2.76925 -4.28122,-1.84617 -7.63934,-4.62339 -10.07437,-8.33165 -2.43504,-3.70825 -3.71622,-7.90192 -3.84354,-12.58103 z"
         id="path3006"
         inkscape:connector-curvature="0" />
      <path
         d="m 709.49248,237.39225 8.45102,1.09815 c -0.92314,5.82501 -3.28655,10.38473 -7.09026,13.67918 -3.80379,3.29447 -8.47492,4.9417 -14.0134,4.9417 -6.93908,0 -12.51738,-2.26793 -16.73491,-6.80378 -4.21756,-4.53585 -6.32633,-11.03723 -6.32633,-19.50417 0,-5.47483 0.90717,-10.26532 2.72152,-14.3715 1.81433,-4.10609 4.57563,-7.1857 8.2839,-9.23882 3.70824,-2.05301 7.74276,-3.07955 12.10357,-3.0796 5.50665,5e-5 10.01067,1.39264 13.51206,4.17776 3.50132,2.78522 5.74537,6.74016 6.73217,11.86484 l -8.35552,1.28913 c -0.79581,-3.40583 -2.20431,-5.96818 -4.22551,-7.68707 -2.02127,-1.71881 -4.46426,-2.57823 -7.32898,-2.57828 -4.32898,5e-5 -7.84625,1.55178 -10.55183,4.65522 -2.70561,3.10352 -4.05841,8.01337 -4.0584,14.72959 -10e-6,6.81175 1.30504,11.7614 3.91516,14.84895 2.61009,3.08757 6.01595,4.63135 10.21761,4.63135 3.37401,0 6.19101,-1.03449 8.45101,-3.10348 2.25993,-2.06898 3.6923,-5.25203 4.29712,-9.54917 z"
         id="path3008"
         inkscape:connector-curvature="0" />
      <path
         d="m 758.38421,249.71067 c -3.18309,2.7056 -6.24678,4.61544 -9.19107,5.7295 -2.94436,1.11407 -6.10354,1.67111 -9.47755,1.67111 -5.57036,0 -9.85157,-1.36076 -12.84363,-4.08227 -2.99208,-2.72151 -4.48811,-6.19899 -4.48811,-10.43246 0,-2.48277 0.56499,-4.7507 1.69498,-6.80378 1.12998,-2.05305 2.6101,-3.70028 4.44036,-4.9417 1.83025,-1.24136 3.89127,-2.18036 6.18309,-2.817 1.687,-0.4456 4.23344,-0.87531 7.63933,-1.28914 6.93903,-0.82756 12.04783,-1.81431 15.32641,-2.96024 0.0318,-1.1777 0.0477,-1.92571 0.0478,-2.24405 -4e-5,-3.50133 -0.81172,-5.96819 -2.43504,-7.40061 -2.19634,-1.94162 -5.45897,-2.91245 -9.7879,-2.91249 -4.0425,4e-5 -7.02661,0.70827 -8.95234,2.12469 -1.92576,1.4165 -3.35018,3.92315 -4.27325,7.51996 l -8.40327,-1.1459 c 0.76393,-3.59681 2.02124,-6.50134 3.77192,-8.71361 1.75067,-2.21218 4.2812,-3.91511 7.59159,-5.1088 3.31036,-1.1936 7.14594,-1.79042 11.50675,-1.79047 4.32892,5e-5 7.84619,0.50934 10.55182,1.52787 2.70556,1.01862 4.69497,2.2998 5.96823,3.84353 1.27318,1.54383 2.16443,3.49345 2.67377,5.84887 0.28643,1.46424 0.42966,4.10618 0.42971,7.92581 l 0,11.45899 c -5e-5,7.98949 0.18298,13.04258 0.54908,15.1593 0.366,2.11674 1.09014,4.14594 2.17243,6.0876 l -8.97621,0 c -0.8913,-1.78251 -1.46425,-3.86741 -1.71885,-6.25471 z m -0.71619,-19.19382 c -3.11943,1.27325 -7.79852,2.35549 -14.03727,3.24672 -3.53322,0.50931 -6.03191,1.08226 -7.4961,1.71885 -1.46422,0.63663 -2.5942,1.56767 -3.38995,2.79313 -0.79578,1.22549 -1.19366,2.58625 -1.19365,4.08227 -1e-5,2.29181 0.86737,4.20164 2.60215,5.7295 1.73475,1.52787 4.27323,2.2918 7.61546,2.2918 3.31035,0 6.25467,-0.72414 8.83298,-2.17244 2.57824,-1.44828 4.47215,-3.42973 5.68175,-5.94435 0.92305,-1.94165 1.38459,-4.8064 1.38463,-8.59425 z"
         id="path3010"
         inkscape:connector-curvature="0" />
      <path
         d="m 779.72659,275.39793 0,-70.13862 7.83031,0 0,6.58892 c 1.84616,-2.57822 3.93106,-4.51193 6.2547,-5.80111 2.32361,-1.28909 5.14061,-1.93366 8.45102,-1.93371 4.32892,5e-5 8.14858,1.11412 11.459,3.34221 3.31033,2.22818 5.80902,5.37145 7.49609,9.4298 1.68697,4.05843 2.53048,8.50674 2.53053,13.34496 -5e-5,5.1884 -0.93109,9.85953 -2.79313,14.0134 -1.86214,4.15389 -4.56773,7.33694 -8.11679,9.54916 -3.54915,2.21223 -7.28127,3.31834 -11.1964,3.31834 -2.86477,0 -5.43509,-0.60478 -7.71095,-1.81434 -2.2759,-1.20956 -4.14595,-2.73743 -5.61014,-4.5836 l 0,24.68459 z m 7.78257,-44.49911 c -2e-5,6.52528 1.32095,11.3476 3.9629,14.46698 2.64191,3.11941 5.84088,4.6791 9.59691,4.6791 3.81964,0 7.09022,-1.6154 9.81177,-4.84621 2.72147,-3.23078 4.08222,-8.23613 4.08227,-15.01606 -5e-5,-6.46157 -1.32897,-11.29981 -3.98678,-14.51473 -2.65789,-3.21484 -5.83298,-4.82228 -9.52529,-4.82233 -3.66054,5e-5 -6.8993,1.71094 -9.71628,5.13268 -2.81702,3.42182 -4.22552,8.39534 -4.2255,14.92057 z"
         id="path3012"
         inkscape:connector-curvature="0" />
      <path
         d="m 868.86804,239.6363 8.88072,1.09816 c -1.40059,5.18839 -3.99478,9.21495 -7.78257,12.07969 -3.78787,2.86475 -8.62611,4.29713 -14.51473,4.29713 -7.41654,0 -13.29723,-2.28384 -17.64208,-6.85153 -4.34488,-4.56767 -6.51731,-10.97356 -6.51731,-19.21769 0,-8.53056 2.19631,-15.15131 6.58893,-19.86227 4.3926,-4.71087 10.09026,-7.06633 17.093,-7.06638 6.77988,5e-5 12.31839,2.30776 16.61555,6.92314 4.29708,4.61547 6.44564,11.1089 6.44569,19.4803 -5e-5,0.50932 -0.016,1.27325 -0.0478,2.2918 l -37.81469,0 c 0.31829,5.57037 1.8939,9.83566 4.72683,12.79588 2.8329,2.96025 6.36609,4.44037 10.59958,4.44037 3.15119,0 5.84087,-0.82759 8.06904,-2.48279 2.2281,-1.65518 3.9947,-4.29711 5.29979,-7.92581 z m -28.21778,-13.89403 28.31327,0 c -0.38201,-4.26526 -1.46424,-7.46423 -3.24672,-9.59691 -2.73746,-3.31034 -6.28656,-4.96552 -10.64731,-4.96557 -3.94702,5e-5 -7.26535,1.32101 -9.95501,3.96291 -2.6897,2.64197 -4.17777,6.17516 -4.46423,10.59957 z"
         id="path3014"
         inkscape:connector-curvature="0" />
    </g>
    <path
       style="fill:none;stroke:#000000;stroke-width:1px;stroke-linecap:butt;stroke-linejoin:miter;stroke-opacity:1"
       d="m 91.938038,428.49693 c 0,-18.85221 0.663638,1.36196 -1.641751,-14.77576 -0.232178,-1.62525 0.232179,-3.3 0,-4.92525 -0.319099,-2.23369 -1.0945,-4.378 -1.641751,-6.567 -1.425895,-5.70359 -2.780327,-10.37942 -3.283501,-16.41751 -0.27268,-3.27216 0.27268,-6.57835 0,-9.85051 -0.276441,-3.31729 -1.365309,-6.5332 -1.641751,-9.8505 -0.499913,-5.99896 0.598988,-12.06938 0,-18.05926 -0.277659,-2.77659 -1.364091,-5.43216 -1.64175,-8.20875 -0.272267,-2.72267 0,-5.4725 0,-8.20875 0,-2.73625 -0.272267,-5.48609 0,-8.20876 0.277659,-2.77659 1.0945,-5.4725 1.64175,-8.20875 0.547251,-2.73625 0.759337,-5.56151 1.641751,-8.20875 0.773929,-2.32179 2.42417,-4.27546 3.283501,-6.56701 2.987067,-7.96551 -0.367817,-5.14057 4.925252,-11.49225 4.508976,-5.41077 4.532885,-4.41046 9.850502,-8.20875 0.84095,-0.60068 9.55771,-7.37966 11.49226,-8.20876 2.07393,-0.88883 4.378,-1.0945 6.567,-1.64175 2.189,-0.54725 4.32806,-1.36188 6.567,-1.64175 2.1721,-0.27151 4.378,0 6.56701,0 2.189,0 4.378,0 6.567,0 1.64175,0 3.3,-0.23218 4.92525,0 2.23369,0.3191 4.33331,1.32265 6.567,1.64175 1.62525,0.23218 3.36775,-0.51917 4.92525,0 5.16152,1.7205 10.70365,9.57091 14.77576,13.13401 2.73625,2.189 5.4725,4.378 8.20875,6.567 1.0945,1.64175 1.88829,3.53003 3.28351,4.92525 1.93482,1.93482 4.63218,2.99043 6.567,4.92525 2.47778,2.47778 4.239,5.58975 6.567,8.20876 2.05668,2.31376 4.52846,4.23724 6.567,6.567 1.80184,2.05924 2.99043,4.63218 4.92526,6.567 1.93482,1.93482 4.378,3.2835 6.567,4.92525 2.189,1.64175 4.24666,3.47505 6.567,4.92526 2.07537,1.2971 4.57549,1.86099 6.567,3.2835 1.88932,1.34951 3.06783,3.53218 4.92526,4.92525 6.36352,4.77264 14.25987,7.95081 21.34275,11.49225 4.37801,2.18901 8.63502,4.63887 13.13401,6.56701 6.21646,2.66419 13.16827,3.47353 19.70101,4.92525 4.48727,0.99717 10.27432,2.83336 14.77575,3.2835 4.35628,0.43563 8.75601,0 13.13401,0 2.189,0 4.378,0 6.567,0 3.2835,0 6.63077,0.64395 9.85051,0 2.39985,-0.47997 4.27545,-2.42417 6.567,-3.2835 12.54091,-4.70284 0.4037,2.26077 14.77576,-4.92525 4.40902,-2.20452 10.92615,-6.55085 14.77575,-9.85051 1.76283,-1.511 3.2835,-3.2835 4.92525,-4.92525 2.189,-2.189 4.66642,-4.12339 6.56701,-6.567 1.95907,-2.51882 2.82397,-5.80729 4.92525,-8.20876 1.80183,-2.05923 4.74913,-2.88015 6.567,-4.92525 2.33655,-2.62861 9.38871,-14.45317 11.49226,-18.05925 2.22311,-3.81106 4.34388,-7.6812 6.567,-11.49226 1.60785,-2.75631 3.4982,-5.35464 4.92525,-8.20875 1.86387,-3.72774 3.06138,-7.76452 4.92525,-11.49226 2.66926,-5.33851 8.4561,-13.28816 11.49226,-18.05925 1.71316,-2.69212 3.3174,-5.45245 4.92525,-8.20876 14.26281,-24.45053 -0.12389,-0.34076 11.49225,-19.70101 1.64175,-2.73625 3.09534,-5.59459 4.92526,-8.20875 13.54789,-19.35414 -0.95038,3.24015 14.77575,-16.41751 1.9934,-2.49174 2.96618,-5.68993 4.92525,-8.20875 1.90059,-2.44361 4.52846,-4.23724 6.56701,-6.567 5.28922,-6.04483 4.68008,-8.02488 11.49225,-13.13401 18.67179,-14.00384 -6.97263,10.25613 13.13401,-9.8505"
       id="path3016"
       inkscape:connector-curvature="0" />
  </g>
</svg>
