M48
INCH
T1C00.032
T2C00.037
T3C00.040
T4C00.042
T5C00.120
%
T001
X00378Y01953
X00378Y02053
X00378Y02253
X01065Y02015
X01065Y02115
X01465Y02015
X01465Y02115
X01678Y01915
X01678Y02015
X01678Y02115
X01778Y00453
X01778Y00603
X01878Y00603
X01978Y00453
X01978Y00603
X01978Y01915
X01978Y02015
X01978Y02115
X02228Y02603
X02228Y02815
X02278Y00503
X02278Y00603
X02378Y01553
X02378Y01690
X02378Y01915
X02378Y02315
X02478Y00453
X02478Y00653
X02478Y00953
X02478Y01353
X02478Y01553
X02478Y01690
X02578Y01553
X02578Y01690
X02578Y01915
X02628Y02603
X02628Y02815
X02653Y00953
X02653Y01053
X02653Y01153
X02653Y01253
X02653Y01353
X02678Y00453
X02678Y00653
X02753Y02415
X02753Y02815
X02778Y01523
X02778Y01723
X02778Y01915
X02878Y02415
X02878Y02815
X03003Y02815
X03078Y00953
X03078Y01053
X03078Y01153
X03078Y01253
X03078Y01353
X03078Y01453
X03078Y01553
X03078Y01653
X03078Y01753
X03078Y01853
X03078Y01953
X03078Y02053
X03078Y02153
X03078Y02253
X03278Y00253
X03278Y00653
X03378Y00953
X03378Y01053
X03378Y01153
X03378Y01253
X03378Y01353
X03378Y01453
X03378Y01553
X03378Y01653
X03378Y01753
X03378Y01853
X03378Y01953
X03378Y02053
X03378Y02153
X03378Y02253
X03403Y02815
X03428Y00453
X03428Y00653
X03540Y01653
X03578Y00253
X03578Y00653
X03678Y02453
X03740Y01653
X03778Y02453
T002
X01728Y00990
X01728Y01553
X02178Y00953
X02178Y01053
X02178Y01153
X02178Y01253
X02178Y01353
X02278Y00953
X02278Y01053
X02278Y01153
X02278Y01253
X02278Y01353
X02878Y00653
X02878Y00753
X02878Y00853
X02878Y00953
X02878Y01053
X02878Y01153
X02878Y01253
X02878Y01353
X03678Y00953
X03678Y01053
X03678Y01153
X03678Y01253
X03678Y01353
X03678Y01853
X03678Y01953
X03678Y02053
X03678Y02153
X03678Y02253
X03778Y00953
X03778Y01053
X03778Y01153
X03778Y01253
X03778Y01353
X03778Y01853
X03778Y01953
X03778Y02053
X03778Y02153
X03778Y02253
T003
X00578Y00753
X00578Y01553
X00703Y02553
X00803Y02453
X01003Y02553
X01203Y02453
X01303Y02553
X01378Y00753
X01378Y00953
X01378Y01353
X01378Y01553
X01478Y02553
X01578Y02453
X01728Y01353
X01778Y02553
X01928Y00990
X01928Y01353
X01928Y01553
X01978Y02453
X02078Y02553
T004
X00803Y02953
X00903Y02853
X00903Y02953
X01103Y02853
X01103Y02953
X01203Y02953
X01578Y02953
X01678Y02853
X01678Y02953
X01878Y02853
X01878Y02953
X01978Y02953
T005
X00328Y00253
X00328Y02903
X03928Y00253
X03928Y02903
M30
