M48
INCH
T1C00.032
T2C00.037
T3C00.040
T4C00.048
T5C00.050
T6C00.063
T7C00.125
%
T001
X00303Y02441
X00353Y01479
X00403Y02604
X00403Y03004
X00503Y02441
X00503Y02604
X00503Y03004
X00553Y01479
X00603Y03104
X00603Y03504
X00603Y03604
X00703Y02704
X00703Y03904
X00803Y02704
X00803Y03104
X00803Y03204
X00803Y03504
X00803Y03704
X00803Y03904
X00853Y03354
X00903Y02604
X00903Y03004
X00903Y03904
X00903Y04004
X00953Y03354
X01003Y03004
X01003Y03104
X01003Y03204
X01003Y03504
X01003Y03604
X01003Y03704
X01103Y01804
X01103Y01904
X01103Y02004
X01103Y02104
X01103Y02204
X01103Y02304
X01103Y02404
X01103Y02504
X01103Y02604
X01103Y02704
X01103Y02804
X01103Y03404
X01103Y03504
X01103Y03604
X01103Y03704
X01203Y01704
X01203Y03304
X01303Y03904
X01303Y04004
X01403Y01704
X01403Y01904
X01403Y02004
X01403Y02104
X01403Y02204
X01403Y02304
X01403Y02404
X01403Y02504
X01403Y02604
X01403Y02704
X01403Y02804
X01403Y03004
X01403Y03304
X01403Y03404
X01403Y03504
X01403Y03604
X01403Y03704
X01503Y01804
X01503Y03004
X01503Y03404
X01503Y03704
X01603Y03004
X01603Y03204
X01603Y03504
X01703Y03504
X01853Y01804
X01853Y02004
X01853Y02204
X01853Y02404
X01853Y02604
X01853Y02804
X01853Y03004
X01853Y03404
X01903Y03704
T002
X00653Y01579
X00703Y01904
X00703Y02004
X00703Y02104
X00703Y02204
X00703Y02304
X00753Y01579
X00803Y01904
X00803Y02004
X00803Y02104
X00803Y02204
X00803Y02304
X00853Y01579
X01503Y02004
X01503Y02104
X01503Y02404
X01503Y02504
X01503Y02604
X01503Y02704
X01503Y02804
X01603Y02004
X01603Y02104
X01603Y02404
X01603Y02504
X01603Y02604
X01603Y02704
X01603Y02804
T003
X00353Y00666
X00353Y00866
X00353Y01216
X00553Y00666
X00553Y00866
X00553Y01216
T004
X00940Y00191
X01140Y00191
X01240Y00191
X01453Y03954
X01653Y03954
X01853Y03954
T005
X00315Y03954
X00515Y03954
X00940Y00554
X00940Y01341
X01137Y01341
X01531Y01341
X01727Y00554
X01727Y01341
T006
X00415Y00204
X00415Y02154
X00415Y03704
X01803Y00204
T007
X00415Y00204
X00415Y02154
X00415Y03704
X01803Y00204
M30
