M48
INCH
T1C00.032
T2C00.035
T3C00.037
T4C00.126
%
T001
X00303Y01140
X00303Y01740
X00403Y01140
X00403Y01740
X00403Y01940
X00403Y02340
X00503Y01140
X00503Y01740
X00503Y01940
X00503Y02340
X00603Y01140
X00603Y01740
X00603Y01940
X00603Y02340
X00703Y01140
X00703Y01740
X00703Y01940
X00703Y02340
X00803Y00740
X00803Y01140
X00803Y01740
X00803Y01940
X00803Y02340
X00903Y00740
X00903Y01140
X00903Y01740
X00903Y01940
X00903Y02340
X01003Y01140
X01003Y01740
X01003Y01940
X01003Y02140
X01103Y01140
X01103Y01740
X01103Y01940
X01103Y02340
X01203Y01140
X01203Y01740
X01203Y01940
X01203Y02140
X01303Y01140
X01303Y01740
X01303Y01940
X01303Y02340
X01403Y00640
X01403Y01040
X01403Y01140
X01403Y01740
X01403Y01940
X01403Y02140
X01503Y01140
X01503Y01740
X01803Y00740
X01803Y00840
X01803Y00940
X01803Y01040
X01803Y01140
X01803Y01240
X01803Y01340
X01803Y01440
X01803Y01540
X01803Y01640
X01803Y01740
X01803Y01840
X01803Y01940
X01803Y02040
X01803Y02140
X02203Y00740
X02203Y00840
X02203Y00940
X02203Y01040
X02203Y01140
X02203Y01240
X02203Y01340
X02203Y01440
X02203Y01540
X02203Y01640
X02203Y01740
X02203Y01840
X02203Y01940
X02203Y02040
X02203Y02140
T002
X00403Y00740
X00403Y02540
X00503Y00740
X00503Y02540
X00603Y00740
X00603Y02540
X00703Y02540
X00803Y02540
X00903Y02540
X01003Y02540
X01103Y00740
X01103Y02540
X01203Y00740
X01303Y00740
T003
X02528Y00801
X02528Y00910
X02528Y01018
X02528Y01127
X02528Y01236
X02528Y01344
X02528Y01453
X02528Y01562
X02528Y01670
X02528Y01779
X02528Y01888
X02528Y01996
X02528Y02105
X02640Y00855
X02640Y00964
X02640Y01073
X02640Y01181
X02640Y01290
X02640Y01399
X02640Y01507
X02640Y01616
X02640Y01725
X02640Y01833
X02640Y01942
X02640Y02051
T004
X02584Y00528
X02584Y02378
M30
