M48
INCH
T1C00.024
T2C00.032
T3C00.035
T4C00.037
T5C00.040
T6C00.045
T7C00.100
%
T001
X01042Y04342
X01417Y02892
X02317Y04342
X02692Y03392
X03067Y01842
X03217Y02892
X03517Y04342
X04117Y04342
X04479Y03392
X04904Y01742
X04967Y01842
X05117Y02892
X05217Y03142
X05417Y04342
X06017Y04342
T002
X00667Y02942
X00867Y02942
X01017Y01042
X01017Y01442
X01017Y01742
X01017Y02142
X01017Y02442
X01017Y02542
X01017Y03142
X01017Y03542
X01092Y02742
X01092Y02942
X01117Y03142
X01117Y03542
X01167Y02442
X01167Y02542
X01217Y01142
X01217Y01242
X01217Y01342
X01217Y01442
X01317Y02442
X01317Y02542
X01317Y02642
X01317Y02742
X01317Y02842
X01317Y02942
X01317Y03042
X01317Y03142
X01317Y03242
X01317Y03342
X01317Y03442
X01317Y03542
X01317Y03642
X01317Y03742
X01317Y03842
X01467Y03942
X01467Y04042
X01517Y01142
X01517Y01242
X01517Y01342
X01517Y01442
X01617Y01142
X01617Y01342
X01617Y02442
X01617Y02542
X01617Y02642
X01617Y02742
X01617Y02842
X01617Y02942
X01617Y03042
X01617Y03142
X01617Y03242
X01617Y03342
X01617Y03442
X01617Y03542
X01617Y03642
X01617Y03742
X01717Y02142
X01717Y02342
X01717Y02442
X01717Y03842
X01817Y03542
X01867Y02142
X01867Y02342
X01867Y03842
X01967Y03842
X02117Y02442
X02117Y03642
X02117Y03842
X02217Y03542
X02217Y03642
X02217Y04042
X02317Y02642
X02317Y02742
X02317Y02842
X02317Y02942
X02317Y03042
X02317Y03142
X02317Y03242
X02317Y03342
X02317Y03442
X02317Y03542
X02317Y03642
X02317Y03742
X02617Y02642
X02617Y02742
X02617Y02842
X02617Y02942
X02617Y03042
X02617Y03142
X02617Y03242
X02617Y03342
X02617Y03442
X02617Y03542
X02617Y03642
X02617Y03742
X02767Y03442
X02767Y03642
X02917Y02642
X02917Y03042
X02917Y03142
X02917Y03342
X02917Y03442
X02917Y03642
X02917Y03742
X02917Y04142
X03017Y02842
X03017Y03042
X03017Y03142
X03017Y03542
X03117Y02442
X03117Y02542
X03117Y02642
X03117Y02742
X03117Y02842
X03117Y02942
X03117Y03042
X03117Y03142
X03117Y03242
X03117Y03342
X03117Y03442
X03117Y03542
X03117Y03642
X03117Y03742
X03117Y03842
X03267Y03942
X03267Y04042
X03417Y02442
X03417Y02542
X03417Y02642
X03417Y02742
X03417Y02842
X03417Y02942
X03417Y03042
X03417Y03142
X03417Y03242
X03417Y03342
X03417Y03442
X03417Y03542
X03417Y03642
X03417Y03742
X03517Y02142
X03517Y02342
X03517Y02442
X03517Y03842
X03617Y03542
X03667Y03842
X03767Y03842
X03917Y02442
X03917Y03642
X03917Y03842
X04016Y03542
X04016Y03642
X04016Y04042
X04117Y02642
X04117Y02742
X04117Y02842
X04117Y02942
X04117Y03042
X04117Y03142
X04117Y03242
X04117Y03342
X04117Y03442
X04117Y03542
X04117Y03642
X04117Y03742
X04417Y02642
X04417Y02742
X04417Y02842
X04417Y02942
X04417Y03042
X04417Y03142
X04417Y03242
X04417Y03342
X04417Y03442
X04417Y03542
X04417Y03642
X04417Y03742
X04567Y03442
X04567Y03642
X04717Y02642
X04717Y03042
X04717Y03142
X04717Y03342
X04717Y03442
X04717Y03642
X04717Y03742
X04717Y04142
X04917Y02842
X04917Y03042
X04917Y03142
X04917Y03542
X05017Y02442
X05017Y02542
X05017Y02642
X05017Y02742
X05017Y02842
X05017Y02942
X05017Y03042
X05017Y03142
X05017Y03242
X05017Y03342
X05017Y03442
X05017Y03542
X05017Y03642
X05017Y03742
X05017Y03842
X05167Y03942
X05167Y04042
X05317Y02442
X05317Y02542
X05317Y02642
X05317Y02742
X05317Y02842
X05317Y02942
X05317Y03042
X05317Y03142
X05317Y03242
X05317Y03342
X05317Y03442
X05317Y03542
X05317Y03642
X05317Y03742
X05417Y02142
X05417Y02342
X05417Y02442
X05417Y03842
X05517Y03542
X05567Y03842
X05667Y03842
X05817Y02442
X05817Y03642
X05817Y03842
X05917Y03542
X05917Y03642
X05917Y04042
X06017Y02642
X06017Y02742
X06017Y02842
X06017Y02942
X06017Y03042
X06017Y03142
X06017Y03242
X06017Y03342
X06017Y03442
X06017Y03542
X06017Y03642
X06017Y03742
X06317Y02642
X06317Y02742
X06317Y02842
X06317Y02942
X06317Y03042
X06317Y03142
X06317Y03242
X06317Y03342
X06317Y03442
X06317Y03542
X06317Y03642
X06317Y03742
X06467Y03442
X06467Y03642
X06617Y02642
X06617Y03042
X06617Y03142
X06617Y03342
X06617Y03442
X06617Y03642
X06617Y03742
X06617Y04142
T003
X00717Y01742
X00717Y01842
X00817Y01742
X00817Y01842
X01367Y02142
X01367Y02242
X01467Y02142
X01467Y02242
X01567Y02142
X01567Y02242
X02317Y02442
X02417Y02442
X02517Y02442
X02617Y02442
X03117Y03542
X03117Y03642
X03167Y02142
X03167Y02242
X03267Y02142
X03267Y02242
X03367Y02142
X03367Y02242
X04117Y02442
X04217Y02442
X04317Y02442
X04417Y02442
X05017Y03542
X05017Y03642
X05067Y02142
X05067Y02242
X05167Y02142
X05167Y02242
X05267Y02142
X05267Y02242
X06017Y02442
X06117Y02442
X06217Y02442
X06317Y02442
T004
X00717Y01042
X00717Y01142
X00717Y01242
X00717Y01342
X00717Y01442
X00717Y02142
X00717Y02242
X00717Y02342
X00717Y02442
X00717Y02542
X00717Y03342
X00717Y03442
X00717Y03542
X00717Y03642
X00717Y03742
X00717Y03842
X00717Y03942
X00817Y01042
X00817Y01142
X00817Y01242
X00817Y01342
X00817Y01442
X00817Y02142
X00817Y02242
X00817Y02342
X00817Y02442
X00817Y02542
X00817Y03342
X00817Y03442
X00817Y03542
X00817Y03642
X00817Y03742
X00817Y03842
X00817Y03942
X01817Y02742
X01817Y02842
X01817Y02942
X01817Y03042
X01817Y03142
X01917Y02742
X01917Y02842
X01917Y02942
X01917Y03042
X01917Y03142
X02167Y02642
X02167Y03242
X02767Y02642
X02767Y03242
X03617Y02742
X03617Y02842
X03617Y02942
X03617Y03042
X03617Y03142
X03717Y02742
X03717Y02842
X03717Y02942
X03717Y03042
X03717Y03142
X03967Y02642
X03967Y03242
X04567Y02642
X04567Y03242
X05517Y02742
X05517Y02842
X05517Y02942
X05517Y03042
X05517Y03142
X05617Y02742
X05617Y02842
X05617Y02942
X05617Y03042
X05617Y03142
X05879Y02642
X05879Y03242
X06467Y02642
X06467Y03242
T005
X02454Y04042
X02654Y04042
X04279Y04042
X04479Y04042
X06179Y04042
X06379Y04042
T006
X02117Y02042
X02317Y02042
X02517Y02042
X02717Y02042
X03917Y02042
X04117Y02042
X04317Y02042
X04517Y02042
X05817Y02042
X06017Y02042
X06217Y02042
X06417Y02042
T007
X00654Y00742
X00654Y04242
M30
