  0
SECTION
  2
ENTITIES
  0
POLYLINE
  8
_BOARD
 66
     1
 62
     3
 10
0.00
 20
0.00
 70
     1
 40
0.00
 41
0.00
  0
VERTEX
  8
_BOARD
 10
70.00
 20
160.05
 40
0.10
 41
0.10
 42
1.000
  0
VERTEX
  8
_BOARD
 10
70.00
 20
159.95
  0
VERTEX
  8
_BOARD
 10
70.00
 20
160.00
  0
VERTEX
  8
_BOARD
 10
70.00
 20
160.00
 40
0.20
 41
0.20
  0
VERTEX
  8
_BOARD
 10
190.00
 20
160.00
  0
VERTEX
  8
_BOARD
 10
190.00
 20
160.00
 40
0.10
 41
0.10
  0
VERTEX
  8
_BOARD
 10
190.00
 20
159.95
 40
0.10
 41
0.10
 42
1.000
  0
VERTEX
  8
_BOARD
 10
190.00
 20
160.05
  0
VERTEX
  8
_BOARD
 10
189.95
 20
160.00
 40
0.10
 41
0.10
 42
1.000
  0
VERTEX
  8
_BOARD
 10
190.05
 20
160.00
  0
VERTEX
  8
_BOARD
 10
190.00
 20
160.00
  0
VERTEX
  8
_BOARD
 10
190.00
 20
160.00
 40
0.20
 41
0.20
  0
VERTEX
  8
_BOARD
 10
190.00
 20
230.00
  0
VERTEX
  8
_BOARD
 10
190.00
 20
230.00
 40
0.10
 41
0.10
  0
VERTEX
  8
_BOARD
 10
190.05
 20
230.00
 40
0.10
 41
0.10
 42
1.000
  0
VERTEX
  8
_BOARD
 10
189.95
 20
230.00
  0
VERTEX
  8
_BOARD
 10
190.00
 20
229.95
 40
0.10
 41
0.10
 42
1.000
  0
VERTEX
  8
_BOARD
 10
190.00
 20
230.05
  0
VERTEX
  8
_BOARD
 10
190.00
 20
230.00
  0
VERTEX
  8
_BOARD
 10
190.00
 20
230.00
 40
0.20
 41
0.20
  0
VERTEX
  8
_BOARD
 10
70.00
 20
230.00
  0
VERTEX
  8
_BOARD
 10
70.00
 20
230.00
 40
0.10
 41
0.10
  0
VERTEX
  8
_BOARD
 10
70.00
 20
230.05
 40
0.10
 41
0.10
 42
1.000
  0
VERTEX
  8
_BOARD
 10
70.00
 20
229.95
  0
VERTEX
  8
_BOARD
 10
70.05
 20
230.00
 40
0.10
 41
0.10
 42
1.000
  0
VERTEX
  8
_BOARD
 10
69.95
 20
230.00
  0
VERTEX
  8
_BOARD
 10
70.00
 20
230.00
  0
VERTEX
  8
_BOARD
 10
70.00
 20
230.00
 40
0.20
 41
0.20
  0
VERTEX
  8
_BOARD
 10
70.00
 20
160.00
 40
0.20
 41
0.20
  0
VERTEX
  8
_BOARD
 10
70.00
 20
160.00
  0
VERTEX
  8
_BOARD
 10
70.00
 20
160.00
 40
0.10
 41
0.10
  0
VERTEX
  8
_BOARD
 10
69.95
 20
160.00
 40
0.10
 41
0.10
 42
1.000
  0
VERTEX
  8
_BOARD
 10
70.05
 20
160.00
  0
SEQEND
  8
_BOARD
  0
POLYLINE
  8
RITZEN
 66
     1
 62
    255
 10
0.00
 20
0.00
 70
     1
 40
0.00
 41
0.00
  0
VERTEX
  8
RITZEN
 10
86.00
 20
181.95
 40
0.10
 41
0.10
 42
1.000
  0
VERTEX
  8
RITZEN
 10
86.00
 20
182.05
  0
VERTEX
  8
RITZEN
 10
86.00
 20
182.00
  0
VERTEX
  8
RITZEN
 10
86.00
 20
182.00
 40
0.20
 41
0.20
 42
1.000
  0
VERTEX
  8
RITZEN
 10
86.00
 20
170.00
  0
VERTEX
  8
RITZEN
 10
86.00
 20
170.00
 40
0.10
 41
0.10
  0
VERTEX
  8
RITZEN
 10
86.00
 20
169.95
 40
0.10
 41
0.10
 42
1.000
  0
VERTEX
  8
RITZEN
 10
86.00
 20
170.05
  0
VERTEX
  8
RITZEN
 10
86.00
 20
170.05
 40
0.10
 41
0.10
 42
1.000
  0
VERTEX
  8
RITZEN
 10
86.00
 20
169.95
  0
VERTEX
  8
RITZEN
 10
86.00
 20
170.00
  0
VERTEX
  8
RITZEN
 10
86.00
 20
170.00
 40
0.20
 41
0.20
 42
1.000
  0
VERTEX
  8
RITZEN
 10
86.00
 20
182.00
 40
0.20
 41
0.20
  0
VERTEX
  8
RITZEN
 10
86.00
 20
182.00
  0
VERTEX
  8
RITZEN
 10
86.00
 20
182.00
 40
0.10
 41
0.10
  0
VERTEX
  8
RITZEN
 10
86.00
 20
182.05
 40
0.10
 41
0.10
 42
1.000
  0
VERTEX
  8
RITZEN
 10
86.00
 20
181.95
  0
SEQEND
  8
RITZEN
  0
POLYLINE
  8
RITZEN
 66
     1
 62
    255
 10
0.00
 20
0.00
 70
     1
 40
0.00
 41
0.00
  0
VERTEX
  8
RITZEN
 10
80.00
 20
220.05
 40
0.10
 41
0.10
 42
1.000
  0
VERTEX
  8
RITZEN
 10
80.00
 20
219.95
  0
VERTEX
  8
RITZEN
 10
80.00
 20
220.00
  0
VERTEX
  8
RITZEN
 10
80.00
 20
220.00
 40
0.20
 41
0.20
  0
VERTEX
  8
RITZEN
 10
180.00
 20
220.00
  0
VERTEX
  8
RITZEN
 10
180.00
 20
220.00
 40
0.10
 41
0.10
  0
VERTEX
  8
RITZEN
 10
180.00
 20
219.95
 40
0.10
 41
0.10
 42
1.000
  0
VERTEX
  8
RITZEN
 10
180.00
 20
220.05
  0
VERTEX
  8
RITZEN
 10
180.05
 20
220.00
 40
0.10
 41
0.10
 42
1.000
  0
VERTEX
  8
RITZEN
 10
179.95
 20
220.00
  0
VERTEX
  8
RITZEN
 10
180.00
 20
220.00
  0
VERTEX
  8
RITZEN
 10
180.00
 20
220.00
 40
0.20
 41
0.20
  0
VERTEX
  8
RITZEN
 10
180.00
 20
170.00
  0
VERTEX
  8
RITZEN
 10
180.00
 20
170.00
 40
0.10
 41
0.10
  0
VERTEX
  8
RITZEN
 10
179.95
 20
170.00
 40
0.10
 41
0.10
 42
1.000
  0
VERTEX
  8
RITZEN
 10
180.05
 20
170.00
  0
VERTEX
  8
RITZEN
 10
180.00
 20
169.95
 40
0.10
 41
0.10
 42
1.000
  0
VERTEX
  8
RITZEN
 10
180.00
 20
170.05
  0
VERTEX
  8
RITZEN
 10
180.00
 20
170.00
  0
VERTEX
  8
RITZEN
 10
180.00
 20
170.00
 40
0.20
 41
0.20
  0
VERTEX
  8
RITZEN
 10
80.00
 20
170.00
  0
VERTEX
  8
RITZEN
 10
80.00
 20
170.00
 40
0.10
 41
0.10
  0
VERTEX
  8
RITZEN
 10
80.00
 20
170.05
 40
0.10
 41
0.10
 42
1.000
  0
VERTEX
  8
RITZEN
 10
80.00
 20
169.95
  0
VERTEX
  8
RITZEN
 10
79.95
 20
170.00
 40
0.10
 41
0.10
 42
1.000
  0
VERTEX
  8
RITZEN
 10
80.05
 20
170.00
  0
VERTEX
  8
RITZEN
 10
80.00
 20
170.00
  0
VERTEX
  8
RITZEN
 10
80.00
 20
170.00
 40
0.20
 41
0.20
  0
VERTEX
  8
RITZEN
 10
80.00
 20
220.00
 40
0.20
 41
0.20
  0
VERTEX
  8
RITZEN
 10
80.00
 20
220.00
  0
VERTEX
  8
RITZEN
 10
80.00
 20
220.00
 40
0.10
 41
0.10
  0
VERTEX
  8
RITZEN
 10
80.05
 20
220.00
 40
0.10
 41
0.10
 42
1.000
  0
VERTEX
  8
RITZEN
 10
79.95
 20
220.00
  0
SEQEND
  8
RITZEN
  0
POLYLINE
  8
RITZEN
 66
     1
 62
    255
 10
0.00
 20
0.00
 40
0.00
 41
0.00
  0
VERTEX
  8
RITZEN
 10
90.63
 20
190.97
 40
0.06
 41
0.06
 42
1.000
  0
VERTEX
  8
RITZEN
 10
90.63
 20
190.91
  0
VERTEX
  8
RITZEN
 10
90.63
 20
190.94
  0
VERTEX
  8
RITZEN
 10
90.63
 20
190.94
 40
0.13
 41
0.13
  0
VERTEX
  8
RITZEN
 10
91.88
 20
190.94
 40
0.13
 41
0.13
  0
VERTEX
  8
RITZEN
 10
91.88
 20
190.94
  0
VERTEX
  8
RITZEN
 10
91.88
 20
190.94
 40
0.06
 41
0.06
  0
VERTEX
  8
RITZEN
 10
91.88
 20
190.91
 40
0.06
 41
0.06
 42
1.000
  0
VERTEX
  8
RITZEN
 10
91.88
 20
190.97
  0
SEQEND
  8
RITZEN
  0
POLYLINE
  8
RITZEN
 66
     1
 62
    255
 10
0.00
 20
0.00
 40
0.00
 41
0.00
  0
VERTEX
  8
RITZEN
 10
91.22
 20
190.94
 40
0.06
 41
0.06
 42
1.000
  0
VERTEX
  8
RITZEN
 10
91.28
 20
190.94
  0
VERTEX
  8
RITZEN
 10
91.25
 20
190.94
  0
VERTEX
  8
RITZEN
 10
91.25
 20
190.94
 40
0.13
 41
0.13
  0
VERTEX
  8
RITZEN
 10
91.25
 20
194.69
 40
0.13
 41
0.13
  0
VERTEX
  8
RITZEN
 10
91.25
 20
194.69
  0
VERTEX
  8
RITZEN
 10
91.25
 20
194.69
 40
0.06
 41
0.06
  0
VERTEX
  8
RITZEN
 10
91.28
 20
194.69
 40
0.06
 41
0.06
 42
1.000
  0
VERTEX
  8
RITZEN
 10
91.22
 20
194.69
  0
SEQEND
  8
RITZEN
  0
POLYLINE
  8
RITZEN
 66
     1
 62
    255
 10
0.00
 20
0.00
 40
0.00
 41
0.00
  0
VERTEX
  8
RITZEN
 10
91.27
 20
194.66
 40
0.06
 41
0.06
 42
1.000
  0
VERTEX
  8
RITZEN
 10
91.23
 20
194.71
  0
VERTEX
  8
RITZEN
 10
91.25
 20
194.69
  0
VERTEX
  8
RITZEN
 10
91.25
 20
194.69
 40
0.13
 41
0.13
  0
VERTEX
  8
RITZEN
 10
90.63
 20
194.06
 40
0.13
 41
0.13
  0
VERTEX
  8
RITZEN
 10
90.63
 20
194.06
  0
VERTEX
  8
RITZEN
 10
90.63
 20
194.06
 40
0.06
 41
0.06
  0
VERTEX
  8
RITZEN
 10
90.60
 20
194.09
 40
0.06
 41
0.06
 42
1.000
  0
VERTEX
  8
RITZEN
 10
90.65
 20
194.04
  0
SEQEND
  8
RITZEN
  0
POLYLINE
  8
RITZEN
 66
     1
 62
    255
 10
0.00
 20
0.00
 40
0.00
 41
0.00
  0
VERTEX
  8
RITZEN
 10
97.50
 20
190.91
 40
0.06
 41
0.06
 42
1.000
  0
VERTEX
  8
RITZEN
 10
97.50
 20
190.97
  0
VERTEX
  8
RITZEN
 10
97.50
 20
190.94
  0
VERTEX
  8
RITZEN
 10
97.50
 20
190.94
 40
0.13
 41
0.13
  0
VERTEX
  8
RITZEN
 10
95.00
 20
190.94
 40
0.13
 41
0.13
  0
VERTEX
  8
RITZEN
 10
95.00
 20
190.94
  0
VERTEX
  8
RITZEN
 10
95.00
 20
190.94
 40
0.06
 41
0.06
  0
VERTEX
  8
RITZEN
 10
95.00
 20
190.97
 40
0.06
 41
0.06
 42
1.000
  0
VERTEX
  8
RITZEN
 10
95.00
 20
190.91
  0
SEQEND
  8
RITZEN
  0
POLYLINE
  8
RITZEN
 66
     1
 62
    255
 10
0.00
 20
0.00
 40
0.00
 41
0.00
  0
VERTEX
  8
RITZEN
 10
94.98
 20
190.96
 40
0.06
 41
0.06
 42
1.000
  0
VERTEX
  8
RITZEN
 10
95.02
 20
190.91
  0
VERTEX
  8
RITZEN
 10
95.00
 20
190.94
  0
VERTEX
  8
RITZEN
 10
95.00
 20
190.94
 40
0.13
 41
0.13
  0
VERTEX
  8
RITZEN
 10
97.19
 20
193.13
 40
0.13
 41
0.13
  0
VERTEX
  8
RITZEN
 10
97.19
 20
193.13
  0
VERTEX
  8
RITZEN
 10
97.19
 20
193.13
 40
0.06
 41
0.06
  0
VERTEX
  8
RITZEN
 10
97.21
 20
193.10
 40
0.06
 41
0.06
 42
1.000
  0
VERTEX
  8
RITZEN
 10
97.17
 20
193.15
  0
SEQEND
  8
RITZEN
  0
POLYLINE
  8
RITZEN
 66
     1
 62
    255
 10
0.00
 20
0.00
 40
0.00
 41
0.00
  0
VERTEX
  8
RITZEN
 10
97.16
 20
193.14
 40
0.06
 41
0.06
 42
1.000
  0
VERTEX
  8
RITZEN
 10
97.22
 20
193.11
  0
VERTEX
  8
RITZEN
 10
97.19
 20
193.13
  0
VERTEX
  8
RITZEN
 10
97.19
 20
193.13
 40
0.13
 41
0.13
  0
VERTEX
  8
RITZEN
 10
97.50
 20
193.75
 40
0.13
 41
0.13
  0
VERTEX
  8
RITZEN
 10
97.50
 20
193.75
  0
VERTEX
  8
RITZEN
 10
97.50
 20
193.75
 40
0.06
 41
0.06
  0
VERTEX
  8
RITZEN
 10
97.53
 20
193.74
 40
0.06
 41
0.06
 42
1.000
  0
VERTEX
  8
RITZEN
 10
97.47
 20
193.76
  0
SEQEND
  8
RITZEN
  0
POLYLINE
  8
RITZEN
 66
     1
 62
    255
 10
0.00
 20
0.00
 40
0.00
 41
0.00
  0
VERTEX
  8
RITZEN
 10
97.47
 20
193.74
 40
0.06
 41
0.06
 42
1.000
  0
VERTEX
  8
RITZEN
 10
97.53
 20
193.76
  0
VERTEX
  8
RITZEN
 10
97.50
 20
193.75
  0
VERTEX
  8
RITZEN
 10
97.50
 20
193.75
 40
0.13
 41
0.13
  0
VERTEX
  8
RITZEN
 10
97.19
 20
194.38
 40
0.13
 41
0.13
  0
VERTEX
  8
RITZEN
 10
97.19
 20
194.38
  0
VERTEX
  8
RITZEN
 10
97.19
 20
194.38
 40
0.06
 41
0.06
  0
VERTEX
  8
RITZEN
 10
97.22
 20
194.39
 40
0.06
 41
0.06
 42
1.000
  0
VERTEX
  8
RITZEN
 10
97.16
 20
194.36
  0
SEQEND
  8
RITZEN
  0
POLYLINE
  8
RITZEN
 66
     1
 62
    255
 10
0.00
 20
0.00
 40
0.00
 41
0.00
  0
VERTEX
  8
RITZEN
 10
97.17
 20
194.35
 40
0.06
 41
0.06
 42
1.000
  0
VERTEX
  8
RITZEN
 10
97.20
 20
194.40
  0
VERTEX
  8
RITZEN
 10
97.19
 20
194.38
  0
VERTEX
  8
RITZEN
 10
97.19
 20
194.38
 40
0.13
 41
0.13
  0
VERTEX
  8
RITZEN
 10
96.56
 20
194.69
 40
0.13
 41
0.13
  0
VERTEX
  8
RITZEN
 10
96.56
 20
194.69
  0
VERTEX
  8
RITZEN
 10
96.56
 20
194.69
 40
0.06
 41
0.06
  0
VERTEX
  8
RITZEN
 10
96.58
 20
194.72
 40
0.06
 41
0.06
 42
1.000
  0
VERTEX
  8
RITZEN
 10
96.55
 20
194.66
  0
SEQEND
  8
RITZEN
  0
POLYLINE
  8
RITZEN
 66
     1
 62
    255
 10
0.00
 20
0.00
 40
0.00
 41
0.00
  0
VERTEX
  8
RITZEN
 10
96.56
 20
194.66
 40
0.06
 41
0.06
 42
1.000
  0
VERTEX
  8
RITZEN
 10
96.56
 20
194.72
  0
VERTEX
  8
RITZEN
 10
96.56
 20
194.69
  0
VERTEX
  8
RITZEN
 10
96.56
 20
194.69
 40
0.13
 41
0.13
  0
VERTEX
  8
RITZEN
 10
95.63
 20
194.69
 40
0.13
 41
0.13
  0
VERTEX
  8
RITZEN
 10
95.63
 20
194.69
  0
VERTEX
  8
RITZEN
 10
95.63
 20
194.69
 40
0.06
 41
0.06
  0
VERTEX
  8
RITZEN
 10
95.63
 20
194.72
 40
0.06
 41
0.06
 42
1.000
  0
VERTEX
  8
RITZEN
 10
95.63
 20
194.66
  0
SEQEND
  8
RITZEN
  0
POLYLINE
  8
RITZEN
 66
     1
 62
    255
 10
0.00
 20
0.00
 40
0.00
 41
0.00
  0
VERTEX
  8
RITZEN
 10
95.64
 20
194.66
 40
0.06
 41
0.06
 42
1.000
  0
VERTEX
  8
RITZEN
 10
95.61
 20
194.72
  0
VERTEX
  8
RITZEN
 10
95.63
 20
194.69
  0
VERTEX
  8
RITZEN
 10
95.63
 20
194.69
 40
0.13
 41
0.13
  0
VERTEX
  8
RITZEN
 10
95.00
 20
194.38
 40
0.13
 41
0.13
  0
VERTEX
  8
RITZEN
 10
95.00
 20
194.38
  0
VERTEX
  8
RITZEN
 10
95.00
 20
194.38
 40
0.06
 41
0.06
  0
VERTEX
  8
RITZEN
 10
94.99
 20
194.40
 40
0.06
 41
0.06
 42
1.000
  0
VERTEX
  8
RITZEN
 10
95.01
 20
194.35
  0
SEQEND
  8
RITZEN
  0
POLYLINE
  8
RITZEN
 66
     1
 62
    255
 10
0.00
 20
0.00
 40
0.00
 41
0.00
  0
VERTEX
  8
RITZEN
 10
100.33
 20
191.28
 40
0.06
 41
0.06
 42
1.000
  0
VERTEX
  8
RITZEN
 10
100.30
 20
191.22
  0
VERTEX
  8
RITZEN
 10
100.31
 20
191.25
  0
VERTEX
  8
RITZEN
 10
100.31
 20
191.25
 40
0.13
 41
0.13
  0
VERTEX
  8
RITZEN
 10
100.94
 20
190.94
 40
0.13
 41
0.13
  0
VERTEX
  8
RITZEN
 10
100.94
 20
190.94
  0
VERTEX
  8
RITZEN
 10
100.94
 20
190.94
 40
0.06
 41
0.06
  0
VERTEX
  8
RITZEN
 10
100.92
 20
190.91
 40
0.06
 41
0.06
 42
1.000
  0
VERTEX
  8
RITZEN
 10
100.95
 20
190.97
  0
SEQEND
  8
RITZEN
  0
POLYLINE
  8
RITZEN
 66
     1
 62
    255
 10
0.00
 20
0.00
 40
0.00
 41
0.00
  0
VERTEX
  8
RITZEN
 10
100.94
 20
190.97
 40
0.06
 41
0.06
 42
1.000
  0
VERTEX
  8
RITZEN
 10
100.94
 20
190.91
  0
VERTEX
  8
RITZEN
 10
100.94
 20
190.94
  0
VERTEX
  8
RITZEN
 10
100.94
 20
190.94
 40
0.13
 41
0.13
  0
VERTEX
  8
RITZEN
 10
101.56
 20
190.94
 40
0.13
 41
0.13
  0
VERTEX
  8
RITZEN
 10
101.56
 20
190.94
  0
VERTEX
  8
RITZEN
 10
101.56
 20
190.94
 40
0.06
 41
0.06
  0
VERTEX
  8
RITZEN
 10
101.56
 20
190.91
 40
0.06
 41
0.06
 42
1.000
  0
VERTEX
  8
RITZEN
 10
101.56
 20
190.97
  0
SEQEND
  8
RITZEN
  0
POLYLINE
  8
RITZEN
 66
     1
 62
    255
 10
0.00
 20
0.00
 40
0.00
 41
0.00
  0
VERTEX
  8
RITZEN
 10
101.55
 20
190.97
 40
0.06
 41
0.06
 42
1.000
  0
VERTEX
  8
RITZEN
 10
101.58
 20
190.91
  0
VERTEX
  8
RITZEN
 10
101.56
 20
190.94
  0
VERTEX
  8
RITZEN
 10
101.56
 20
190.94
 40
0.13
 41
0.13
  0
VERTEX
  8
RITZEN
 10
102.19
 20
191.25
 40
0.13
 41
0.13
  0
VERTEX
  8
RITZEN
 10
102.19
 20
191.25
  0
VERTEX
  8
RITZEN
 10
102.19
 20
191.25
 40
0.06
 41
0.06
  0
VERTEX
  8
RITZEN
 10
102.20
 20
191.22
 40
0.06
 41
0.06
 42
1.000
  0
VERTEX
  8
RITZEN
 10
102.17
 20
191.28
  0
SEQEND
  8
RITZEN
  0
POLYLINE
  8
RITZEN
 66
     1
 62
    255
 10
0.00
 20
0.00
 40
0.00
 41
0.00
  0
VERTEX
  8
RITZEN
 10
102.16
 20
191.26
 40
0.06
 41
0.06
 42
1.000
  0
VERTEX
  8
RITZEN
 10
102.22
 20
191.24
  0
VERTEX
  8
RITZEN
 10
102.19
 20
191.25
  0
VERTEX
  8
RITZEN
 10
102.19
 20
191.25
 40
0.13
 41
0.13
  0
VERTEX
  8
RITZEN
 10
102.50
 20
191.88
 40
0.13
 41
0.13
  0
VERTEX
  8
RITZEN
 10
102.50
 20
191.88
  0
VERTEX
  8
RITZEN
 10
102.50
 20
191.88
 40
0.06
 41
0.06
  0
VERTEX
  8
RITZEN
 10
102.53
 20
191.86
 40
0.06
 41
0.06
 42
1.000
  0
VERTEX
  8
RITZEN
 10
102.47
 20
191.89
  0
SEQEND
  8
RITZEN
  0
POLYLINE
  8
RITZEN
 66
     1
 62
    255
 10
0.00
 20
0.00
 40
0.00
 41
0.00
  0
VERTEX
  8
RITZEN
 10
102.47
 20
191.86
 40
0.06
 41
0.06
 42
1.000
  0
VERTEX
  8
RITZEN
 10
102.53
 20
191.89
  0
VERTEX
  8
RITZEN
 10
102.50
 20
191.88
  0
VERTEX
  8
RITZEN
 10
102.50
 20
191.88
 40
0.13
 41
0.13
  0
VERTEX
  8
RITZEN
 10
102.19
 20
192.50
 40
0.13
 41
0.13
  0
VERTEX
  8
RITZEN
 10
102.19
 20
192.50
  0
VERTEX
  8
RITZEN
 10
102.19
 20
192.50
 40
0.06
 41
0.06
  0
VERTEX
  8
RITZEN
 10
102.22
 20
192.51
 40
0.06
 41
0.06
 42
1.000
  0
VERTEX
  8
RITZEN
 10
102.16
 20
192.49
  0
SEQEND
  8
RITZEN
  0
POLYLINE
  8
RITZEN
 66
     1
 62
    255
 10
0.00
 20
0.00
 40
0.00
 41
0.00
  0
VERTEX
  8
RITZEN
 10
102.17
 20
192.47
 40
0.06
 41
0.06
 42
1.000
  0
VERTEX
  8
RITZEN
 10
102.20
 20
192.53
  0
VERTEX
  8
RITZEN
 10
102.19
 20
192.50
  0
VERTEX
  8
RITZEN
 10
102.19
 20
192.50
 40
0.13
 41
0.13
  0
VERTEX
  8
RITZEN
 10
101.56
 20
192.81
 40
0.13
 41
0.13
  0
VERTEX
  8
RITZEN
 10
101.56
 20
192.81
  0
VERTEX
  8
RITZEN
 10
101.56
 20
192.81
 40
0.06
 41
0.06
  0
VERTEX
  8
RITZEN
 10
101.58
 20
192.84
 40
0.06
 41
0.06
 42
1.000
  0
VERTEX
  8
RITZEN
 10
101.55
 20
192.78
  0
SEQEND
  8
RITZEN
  0
POLYLINE
  8
RITZEN
 66
     1
 62
    255
 10
0.00
 20
0.00
 40
0.00
 41
0.00
  0
VERTEX
  8
RITZEN
 10
101.56
 20
192.78
 40
0.06
 41
0.06
 42
1.000
  0
VERTEX
  8
RITZEN
 10
101.56
 20
192.84
  0
VERTEX
  8
RITZEN
 10
101.56
 20
192.81
  0
VERTEX
  8
RITZEN
 10
101.56
 20
192.81
 40
0.13
 41
0.13
  0
VERTEX
  8
RITZEN
 10
100.94
 20
192.81
 40
0.13
 41
0.13
  0
VERTEX
  8
RITZEN
 10
100.94
 20
192.81
  0
VERTEX
  8
RITZEN
 10
100.94
 20
192.81
 40
0.06
 41
0.06
  0
VERTEX
  8
RITZEN
 10
100.94
 20
192.84
 40
0.06
 41
0.06
 42
1.000
  0
VERTEX
  8
RITZEN
 10
100.94
 20
192.78
  0
SEQEND
  8
RITZEN
  0
POLYLINE
  8
RITZEN
 66
     1
 62
    255
 10
0.00
 20
0.00
 40
0.00
 41
0.00
  0
VERTEX
  8
RITZEN
 10
101.55
 20
192.84
 40
0.06
 41
0.06
 42
1.000
  0
VERTEX
  8
RITZEN
 10
101.58
 20
192.78
  0
VERTEX
  8
RITZEN
 10
101.56
 20
192.81
  0
VERTEX
  8
RITZEN
 10
101.56
 20
192.81
 40
0.13
 41
0.13
  0
VERTEX
  8
RITZEN
 10
102.19
 20
193.13
 40
0.13
 41
0.13
  0
VERTEX
  8
RITZEN
 10
102.19
 20
193.13
  0
VERTEX
  8
RITZEN
 10
102.19
 20
193.13
 40
0.06
 41
0.06
  0
VERTEX
  8
RITZEN
 10
102.20
 20
193.10
 40
0.06
 41
0.06
 42
1.000
  0
VERTEX
  8
RITZEN
 10
102.17
 20
193.15
  0
SEQEND
  8
RITZEN
  0
POLYLINE
  8
RITZEN
 66
     1
 62
    255
 10
0.00
 20
0.00
 40
0.00
 41
0.00
  0
VERTEX
  8
RITZEN
 10
102.16
 20
193.14
 40
0.06
 41
0.06
 42
1.000
  0
VERTEX
  8
RITZEN
 10
102.22
 20
193.11
  0
VERTEX
  8
RITZEN
 10
102.19
 20
193.13
  0
VERTEX
  8
RITZEN
 10
102.19
 20
193.13
 40
0.13
 41
0.13
  0
VERTEX
  8
RITZEN
 10
102.50
 20
193.75
 40
0.13
 41
0.13
  0
VERTEX
  8
RITZEN
 10
102.50
 20
193.75
  0
VERTEX
  8
RITZEN
 10
102.50
 20
193.75
 40
0.06
 41
0.06
  0
VERTEX
  8
RITZEN
 10
102.53
 20
193.74
 40
0.06
 41
0.06
 42
1.000
  0
VERTEX
  8
RITZEN
 10
102.47
 20
193.76
  0
SEQEND
  8
RITZEN
  0
POLYLINE
  8
RITZEN
 66
     1
 62
    255
 10
0.00
 20
0.00
 40
0.00
 41
0.00
  0
VERTEX
  8
RITZEN
 10
102.47
 20
193.74
 40
0.06
 41
0.06
 42
1.000
  0
VERTEX
  8
RITZEN
 10
102.53
 20
193.76
  0
VERTEX
  8
RITZEN
 10
102.50
 20
193.75
  0
VERTEX
  8
RITZEN
 10
102.50
 20
193.75
 40
0.13
 41
0.13
  0
VERTEX
  8
RITZEN
 10
102.19
 20
194.38
 40
0.13
 41
0.13
  0
VERTEX
  8
RITZEN
 10
102.19
 20
194.38
  0
VERTEX
  8
RITZEN
 10
102.19
 20
194.38
 40
0.06
 41
0.06
  0
VERTEX
  8
RITZEN
 10
102.22
 20
194.39
 40
0.06
 41
0.06
 42
1.000
  0
VERTEX
  8
RITZEN
 10
102.16
 20
194.36
  0
SEQEND
  8
RITZEN
  0
POLYLINE
  8
RITZEN
 66
     1
 62
    255
 10
0.00
 20
0.00
 40
0.00
 41
0.00
  0
VERTEX
  8
RITZEN
 10
102.17
 20
194.35
 40
0.06
 41
0.06
 42
1.000
  0
VERTEX
  8
RITZEN
 10
102.20
 20
194.40
  0
VERTEX
  8
RITZEN
 10
102.19
 20
194.38
  0
VERTEX
  8
RITZEN
 10
102.19
 20
194.38
 40
0.13
 41
0.13
  0
VERTEX
  8
RITZEN
 10
101.56
 20
194.69
 40
0.13
 41
0.13
  0
VERTEX
  8
RITZEN
 10
101.56
 20
194.69
  0
VERTEX
  8
RITZEN
 10
101.56
 20
194.69
 40
0.06
 41
0.06
  0
VERTEX
  8
RITZEN
 10
101.58
 20
194.72
 40
0.06
 41
0.06
 42
1.000
  0
VERTEX
  8
RITZEN
 10
101.55
 20
194.66
  0
SEQEND
  8
RITZEN
  0
POLYLINE
  8
RITZEN
 66
     1
 62
    255
 10
0.00
 20
0.00
 40
0.00
 41
0.00
  0
VERTEX
  8
RITZEN
 10
101.56
 20
194.66
 40
0.06
 41
0.06
 42
1.000
  0
VERTEX
  8
RITZEN
 10
101.56
 20
194.72
  0
VERTEX
  8
RITZEN
 10
101.56
 20
194.69
  0
VERTEX
  8
RITZEN
 10
101.56
 20
194.69
 40
0.13
 41
0.13
  0
VERTEX
  8
RITZEN
 10
100.94
 20
194.69
 40
0.13
 41
0.13
  0
VERTEX
  8
RITZEN
 10
100.94
 20
194.69
  0
VERTEX
  8
RITZEN
 10
100.94
 20
194.69
 40
0.06
 41
0.06
  0
VERTEX
  8
RITZEN
 10
100.94
 20
194.72
 40
0.06
 41
0.06
 42
1.000
  0
VERTEX
  8
RITZEN
 10
100.94
 20
194.66
  0
SEQEND
  8
RITZEN
  0
POLYLINE
  8
RITZEN
 66
     1
 62
    255
 10
0.00
 20
0.00
 40
0.00
 41
0.00
  0
VERTEX
  8
RITZEN
 10
100.95
 20
194.66
 40
0.06
 41
0.06
 42
1.000
  0
VERTEX
  8
RITZEN
 10
100.92
 20
194.72
  0
VERTEX
  8
RITZEN
 10
100.94
 20
194.69
  0
VERTEX
  8
RITZEN
 10
100.94
 20
194.69
 40
0.13
 41
0.13
  0
VERTEX
  8
RITZEN
 10
100.31
 20
194.38
 40
0.13
 41
0.13
  0
VERTEX
  8
RITZEN
 10
100.31
 20
194.38
  0
VERTEX
  8
RITZEN
 10
100.31
 20
194.38
 40
0.06
 41
0.06
  0
VERTEX
  8
RITZEN
 10
100.30
 20
194.40
 40
0.06
 41
0.06
 42
1.000
  0
VERTEX
  8
RITZEN
 10
100.33
 20
194.35
  0
SEQEND
  8
RITZEN
  0
POLYLINE
  8
RITZEN
 66
     1
 62
    255
 10
0.00
 20
0.00
 40
0.00
 41
0.00
  0
VERTEX
  8
RITZEN
 10
113.15
 20
191.54
 40
0.06
 41
0.06
 42
1.000
  0
VERTEX
  8
RITZEN
 10
113.10
 20
191.59
  0
VERTEX
  8
RITZEN
 10
113.13
 20
191.56
  0
VERTEX
  8
RITZEN
 10
113.13
 20
191.56
 40
0.13
 41
0.13
  0
VERTEX
  8
RITZEN
 10
112.81
 20
191.25
 40
0.13
 41
0.13
  0
VERTEX
  8
RITZEN
 10
112.81
 20
191.25
  0
VERTEX
  8
RITZEN
 10
112.81
 20
191.25
 40
0.06
 41
0.06
  0
VERTEX
  8
RITZEN
 10
112.79
 20
191.27
 40
0.06
 41
0.06
 42
1.000
  0
VERTEX
  8
RITZEN
 10
112.83
 20
191.23
  0
SEQEND
  8
RITZEN
  0
POLYLINE
  8
RITZEN
 66
     1
 62
    255
 10
0.00
 20
0.00
 40
0.00
 41
0.00
  0
VERTEX
  8
RITZEN
 10
112.83
 20
191.22
 40
0.06
 41
0.06
 42
1.000
  0
VERTEX
  8
RITZEN
 10
112.80
 20
191.28
  0
VERTEX
  8
RITZEN
 10
112.81
 20
191.25
  0
VERTEX
  8
RITZEN
 10
112.81
 20
191.25
 40
0.13
 41
0.13
  0
VERTEX
  8
RITZEN
 10
112.19
 20
190.94
 40
0.13
 41
0.13
  0
VERTEX
  8
RITZEN
 10
112.19
 20
190.94
  0
VERTEX
  8
RITZEN
 10
112.19
 20
190.94
 40
0.06
 41
0.06
  0
VERTEX
  8
RITZEN
 10
112.17
 20
190.97
 40
0.06
 41
0.06
 42
1.000
  0
VERTEX
  8
RITZEN
 10
112.20
 20
190.91
  0
SEQEND
  8
RITZEN
  0
POLYLINE
  8
RITZEN
 66
     1
 62
    255
 10
0.00
 20
0.00
 40
0.00
 41
0.00
  0
VERTEX
  8
RITZEN
 10
112.19
 20
190.91
 40
0.06
 41
0.06
 42
1.000
  0
VERTEX
  8
RITZEN
 10
112.19
 20
190.97
  0
VERTEX
  8
RITZEN
 10
112.19
 20
190.94
  0
VERTEX
  8
RITZEN
 10
112.19
 20
190.94
 40
0.13
 41
0.13
  0
VERTEX
  8
RITZEN
 10
111.25
 20
190.94
 40
0.13
 41
0.13
  0
VERTEX
  8
RITZEN
 10
111.25
 20
190.94
  0
VERTEX
  8
RITZEN
 10
111.25
 20
190.94
 40
0.06
 41
0.06
  0
VERTEX
  8
RITZEN
 10
111.25
 20
190.97
 40
0.06
 41
0.06
 42
1.000
  0
VERTEX
  8
RITZEN
 10
111.25
 20
190.91
  0
SEQEND
  8
RITZEN
  0
POLYLINE
  8
RITZEN
 66
     1
 62
    255
 10
0.00
 20
0.00
 40
0.00
 41
0.00
  0
VERTEX
  8
RITZEN
 10
111.24
 20
190.91
 40
0.06
 41
0.06
 42
1.000
  0
VERTEX
  8
RITZEN
 10
111.26
 20
190.97
  0
VERTEX
  8
RITZEN
 10
111.25
 20
190.94
  0
VERTEX
  8
RITZEN
 10
111.25
 20
190.94
 40
0.13
 41
0.13
  0
VERTEX
  8
RITZEN
 10
110.63
 20
191.25
 40
0.13
 41
0.13
  0
VERTEX
  8
RITZEN
 10
110.63
 20
191.25
  0
VERTEX
  8
RITZEN
 10
110.63
 20
191.25
 40
0.06
 41
0.06
  0
VERTEX
  8
RITZEN
 10
110.64
 20
191.28
 40
0.06
 41
0.06
 42
1.000
  0
VERTEX
  8
RITZEN
 10
110.61
 20
191.22
  0
SEQEND
  8
RITZEN
  0
POLYLINE
  8
RITZEN
 66
     1
 62
    255
 10
0.00
 20
0.00
 40
0.00
 41
0.00
  0
VERTEX
  8
RITZEN
 10
110.60
 20
191.23
 40
0.06
 41
0.06
 42
1.000
  0
VERTEX
  8
RITZEN
 10
110.65
 20
191.27
  0
VERTEX
  8
RITZEN
 10
110.63
 20
191.25
  0
VERTEX
  8
RITZEN
 10
110.63
 20
191.25
 40
0.13
 41
0.13
  0
VERTEX
  8
RITZEN
 10
110.31
 20
191.56
 40
0.13
 41
0.13
  0
VERTEX
  8
RITZEN
 10
110.31
 20
191.56
  0
VERTEX
  8
RITZEN
 10
110.31
 20
191.56
 40
0.06
 41
0.06
  0
VERTEX
  8
RITZEN
 10
110.33
 20
191.59
 40
0.06
 41
0.06
 42
1.000
  0
VERTEX
  8
RITZEN
 10
110.29
 20
191.54
  0
SEQEND
  8
RITZEN
  0
POLYLINE
  8
RITZEN
 66
     1
 62
    255
 10
0.00
 20
0.00
 40
0.00
 41
0.00
  0
VERTEX
  8
RITZEN
 10
110.28
 20
191.55
 40
0.06
 41
0.06
 42
1.000
  0
VERTEX
  8
RITZEN
 10
110.34
 20
191.58
  0
VERTEX
  8
RITZEN
 10
110.31
 20
191.56
  0
VERTEX
  8
RITZEN
 10
110.31
 20
191.56
 40
0.13
 41
0.13
  0
VERTEX
  8
RITZEN
 10
110.00
 20
192.19
 40
0.13
 41
0.13
  0
VERTEX
  8
RITZEN
 10
110.00
 20
192.19
  0
VERTEX
  8
RITZEN
 10
110.00
 20
192.19
 40
0.06
 41
0.06
  0
VERTEX
  8
RITZEN
 10
110.03
 20
192.20
 40
0.06
 41
0.06
 42
1.000
  0
VERTEX
  8
RITZEN
 10
109.97
 20
192.17
  0
SEQEND
  8
RITZEN
  0
POLYLINE
  8
RITZEN
 66
     1
 62
    255
 10
0.00
 20
0.00
 40
0.00
 41
0.00
  0
VERTEX
  8
RITZEN
 10
109.97
 20
192.19
 40
0.06
 41
0.06
 42
1.000
  0
VERTEX
  8
RITZEN
 10
110.03
 20
192.19
  0
VERTEX
  8
RITZEN
 10
110.00
 20
192.19
  0
VERTEX
  8
RITZEN
 10
110.00
 20
192.19
 40
0.13
 41
0.13
  0
VERTEX
  8
RITZEN
 10
110.00
 20
193.44
 40
0.13
 41
0.13
  0
VERTEX
  8
RITZEN
 10
110.00
 20
193.44
  0
VERTEX
  8
RITZEN
 10
110.00
 20
193.44
 40
0.06
 41
0.06
  0
VERTEX
  8
RITZEN
 10
110.03
 20
193.44
 40
0.06
 41
0.06
 42
1.000
  0
VERTEX
  8
RITZEN
 10
109.97
 20
193.44
  0
SEQEND
  8
RITZEN
  0
POLYLINE
  8
RITZEN
 66
     1
 62
    255
 10
0.00
 20
0.00
 40
0.00
 41
0.00
  0
VERTEX
  8
RITZEN
 10
109.97
 20
193.45
 40
0.06
 41
0.06
 42
1.000
  0
VERTEX
  8
RITZEN
 10
110.03
 20
193.42
  0
VERTEX
  8
RITZEN
 10
110.00
 20
193.44
  0
VERTEX
  8
RITZEN
 10
110.00
 20
193.44
 40
0.13
 41
0.13
  0
VERTEX
  8
RITZEN
 10
110.31
 20
194.06
 40
0.13
 41
0.13
  0
VERTEX
  8
RITZEN
 10
110.31
 20
194.06
  0
VERTEX
  8
RITZEN
 10
110.31
 20
194.06
 40
0.06
 41
0.06
  0
VERTEX
  8
RITZEN
 10
110.34
 20
194.05
 40
0.06
 41
0.06
 42
1.000
  0
VERTEX
  8
RITZEN
 10
110.28
 20
194.08
  0
SEQEND
  8
RITZEN
  0
POLYLINE
  8
RITZEN
 66
     1
 62
    255
 10
0.00
 20
0.00
 40
0.00
 41
0.00
  0
VERTEX
  8
RITZEN
 10
110.29
 20
194.09
 40
0.06
 41
0.06
 42
1.000
  0
VERTEX
  8
RITZEN
 10
110.33
 20
194.04
  0
VERTEX
  8
RITZEN
 10
110.31
 20
194.06
  0
VERTEX
  8
RITZEN
 10
110.31
 20
194.06
 40
0.13
 41
0.13
  0
VERTEX
  8
RITZEN
 10
110.63
 20
194.38
 40
0.13
 41
0.13
  0
VERTEX
  8
RITZEN
 10
110.63
 20
194.38
  0
VERTEX
  8
RITZEN
 10
110.63
 20
194.38
 40
0.06
 41
0.06
  0
VERTEX
  8
RITZEN
 10
110.65
 20
194.35
 40
0.06
 41
0.06
 42
1.000
  0
VERTEX
  8
RITZEN
 10
110.60
 20
194.40
  0
SEQEND
  8
RITZEN
  0
POLYLINE
  8
RITZEN
 66
     1
 62
    255
 10
0.00
 20
0.00
 40
0.00
 41
0.00
  0
VERTEX
  8
RITZEN
 10
110.61
 20
194.40
 40
0.06
 41
0.06
 42
1.000
  0
VERTEX
  8
RITZEN
 10
110.64
 20
194.35
  0
VERTEX
  8
RITZEN
 10
110.63
 20
194.38
  0
VERTEX
  8
RITZEN
 10
110.63
 20
194.38
 40
0.13
 41
0.13
  0
VERTEX
  8
RITZEN
 10
111.25
 20
194.69
 40
0.13
 41
0.13
  0
VERTEX
  8
RITZEN
 10
111.25
 20
194.69
  0
VERTEX
  8
RITZEN
 10
111.25
 20
194.69
 40
0.06
 41
0.06
  0
VERTEX
  8
RITZEN
 10
111.26
 20
194.66
 40
0.06
 41
0.06
 42
1.000
  0
VERTEX
  8
RITZEN
 10
111.24
 20
194.72
  0
SEQEND
  8
RITZEN
  0
POLYLINE
  8
RITZEN
 66
     1
 62
    255
 10
0.00
 20
0.00
 40
0.00
 41
0.00
  0
VERTEX
  8
RITZEN
 10
111.25
 20
194.72
 40
0.06
 41
0.06
 42
1.000
  0
VERTEX
  8
RITZEN
 10
111.25
 20
194.66
  0
VERTEX
  8
RITZEN
 10
111.25
 20
194.69
  0
VERTEX
  8
RITZEN
 10
111.25
 20
194.69
 40
0.13
 41
0.13
  0
VERTEX
  8
RITZEN
 10
112.19
 20
194.69
 40
0.13
 41
0.13
  0
VERTEX
  8
RITZEN
 10
112.19
 20
194.69
  0
VERTEX
  8
RITZEN
 10
112.19
 20
194.69
 40
0.06
 41
0.06
  0
VERTEX
  8
RITZEN
 10
112.19
 20
194.66
 40
0.06
 41
0.06
 42
1.000
  0
VERTEX
  8
RITZEN
 10
112.19
 20
194.72
  0
SEQEND
  8
RITZEN
  0
POLYLINE
  8
RITZEN
 66
     1
 62
    255
 10
0.00
 20
0.00
 40
0.00
 41
0.00
  0
VERTEX
  8
RITZEN
 10
112.20
 20
194.72
 40
0.06
 41
0.06
 42
1.000
  0
VERTEX
  8
RITZEN
 10
112.17
 20
194.66
  0
VERTEX
  8
RITZEN
 10
112.19
 20
194.69
  0
VERTEX
  8
RITZEN
 10
112.19
 20
194.69
 40
0.13
 41
0.13
  0
VERTEX
  8
RITZEN
 10
112.81
 20
194.38
 40
0.13
 41
0.13
  0
VERTEX
  8
RITZEN
 10
112.81
 20
194.38
  0
VERTEX
  8
RITZEN
 10
112.81
 20
194.38
 40
0.06
 41
0.06
  0
VERTEX
  8
RITZEN
 10
112.80
 20
194.35
 40
0.06
 41
0.06
 42
1.000
  0
VERTEX
  8
RITZEN
 10
112.83
 20
194.40
  0
SEQEND
  8
RITZEN
  0
POLYLINE
  8
RITZEN
 66
     1
 62
    255
 10
0.00
 20
0.00
 40
0.00
 41
0.00
  0
VERTEX
  8
RITZEN
 10
112.83
 20
194.40
 40
0.06
 41
0.06
 42
1.000
  0
VERTEX
  8
RITZEN
 10
112.79
 20
194.35
  0
VERTEX
  8
RITZEN
 10
112.81
 20
194.38
  0
VERTEX
  8
RITZEN
 10
112.81
 20
194.38
 40
0.13
 41
0.13
  0
VERTEX
  8
RITZEN
 10
113.13
 20
194.06
 40
0.13
 41
0.13
  0
VERTEX
  8
RITZEN
 10
113.13
 20
194.06
  0
VERTEX
  8
RITZEN
 10
113.13
 20
194.06
 40
0.06
 41
0.06
  0
VERTEX
  8
RITZEN
 10
113.10
 20
194.04
 40
0.06
 41
0.06
 42
1.000
  0
VERTEX
  8
RITZEN
 10
113.15
 20
194.09
  0
SEQEND
  8
RITZEN
  0
POLYLINE
  8
RITZEN
 66
     1
 62
    255
 10
0.00
 20
0.00
 40
0.00
 41
0.00
  0
VERTEX
  8
RITZEN
 10
114.97
 20
190.94
 40
0.06
 41
0.06
 42
1.000
  0
VERTEX
  8
RITZEN
 10
115.03
 20
190.94
  0
VERTEX
  8
RITZEN
 10
115.00
 20
190.94
  0
VERTEX
  8
RITZEN
 10
115.00
 20
190.94
 40
0.13
 41
0.13
  0
VERTEX
  8
RITZEN
 10
115.00
 20
194.69
 40
0.13
 41
0.13
  0
VERTEX
  8
RITZEN
 10
115.00
 20
194.69
  0
VERTEX
  8
RITZEN
 10
115.00
 20
194.69
 40
0.06
 41
0.06
  0
VERTEX
  8
RITZEN
 10
115.03
 20
194.69
 40
0.06
 41
0.06
 42
1.000
  0
VERTEX
  8
RITZEN
 10
114.97
 20
194.69
  0
SEQEND
  8
RITZEN
  0
POLYLINE
  8
RITZEN
 66
     1
 62
    255
 10
0.00
 20
0.00
 40
0.00
 41
0.00
  0
VERTEX
  8
RITZEN
 10
115.02
 20
194.71
 40
0.06
 41
0.06
 42
1.000
  0
VERTEX
  8
RITZEN
 10
114.98
 20
194.67
  0
VERTEX
  8
RITZEN
 10
115.00
 20
194.69
  0
VERTEX
  8
RITZEN
 10
115.00
 20
194.69
 40
0.13
 41
0.13
  0
VERTEX
  8
RITZEN
 10
116.56
 20
192.81
 40
0.13
 41
0.13
  0
VERTEX
  8
RITZEN
 10
116.56
 20
192.81
  0
VERTEX
  8
RITZEN
 10
116.56
 20
192.81
 40
0.06
 41
0.06
  0
VERTEX
  8
RITZEN
 10
116.54
 20
192.79
 40
0.06
 41
0.06
 42
1.000
  0
VERTEX
  8
RITZEN
 10
116.59
 20
192.83
  0
SEQEND
  8
RITZEN
  0
POLYLINE
  8
RITZEN
 66
     1
 62
    255
 10
0.00
 20
0.00
 40
0.00
 41
0.00
  0
VERTEX
  8
RITZEN
 10
116.54
 20
192.83
 40
0.06
 41
0.06
 42
1.000
  0
VERTEX
  8
RITZEN
 10
116.59
 20
192.79
  0
VERTEX
  8
RITZEN
 10
116.56
 20
192.81
  0
VERTEX
  8
RITZEN
 10
116.56
 20
192.81
 40
0.13
 41
0.13
  0
VERTEX
  8
RITZEN
 10
118.13
 20
194.69
 40
0.13
 41
0.13
  0
VERTEX
  8
RITZEN
 10
118.13
 20
194.69
  0
VERTEX
  8
RITZEN
 10
118.13
 20
194.69
 40
0.06
 41
0.06
  0
VERTEX
  8
RITZEN
 10
118.15
 20
194.67
 40
0.06
 41
0.06
 42
1.000
  0
VERTEX
  8
RITZEN
 10
118.10
 20
194.71
  0
SEQEND
  8
RITZEN
  0
POLYLINE
  8
RITZEN
 66
     1
 62
    255
 10
0.00
 20
0.00
 40
0.00
 41
0.00
  0
VERTEX
  8
RITZEN
 10
118.16
 20
194.69
 40
0.06
 41
0.06
 42
1.000
  0
VERTEX
  8
RITZEN
 10
118.09
 20
194.69
  0
VERTEX
  8
RITZEN
 10
118.13
 20
194.69
  0
VERTEX
  8
RITZEN
 10
118.13
 20
194.69
 40
0.13
 41
0.13
  0
VERTEX
  8
RITZEN
 10
118.13
 20
190.94
 40
0.13
 41
0.13
  0
VERTEX
  8
RITZEN
 10
118.13
 20
190.94
  0
VERTEX
  8
RITZEN
 10
118.13
 20
190.94
 40
0.06
 41
0.06
  0
VERTEX
  8
RITZEN
 10
118.09
 20
190.94
 40
0.06
 41
0.06
 42
1.000
  0
VERTEX
  8
RITZEN
 10
118.16
 20
190.94
  0
SEQEND
  8
RITZEN
  0
ENDSEC
  0
EOF
