M48
INCH
T1C00.032
T2C00.037
T3C00.040
T4C00.042
T5C00.120
%
T001
X00378Y01953
X00378Y02053
X00378Y02253
X03428Y00653
X03678Y02453
X03740Y01653
X03778Y02453
T002
X01728Y00990
X01728Y01553
X02178Y00953
X03778Y02153
X03778Y02253
T003
X00578Y00753
X00578Y01553
X01978Y02453
X02078Y02553
T004
X00803Y02953
X00903Y02853
X01878Y02953
X01978Y02953
T005
X00328Y00253
X03928Y00253
X03928Y02903
M30
